<svg width="441" height="144" viewBox="0 0 441 144" fill="none" xmlns="http://www.w3.org/2000/svg">
    <path fill-rule="evenodd" clip-rule="evenodd" d="M276.836 115.27C278.236 115.27 279.21 114.298 279.21 112.897V43.356H302.819C304.22 43.356 305.19 42.387 305.19 40.984V31.393C305.19 29.989 304.22 29.018 302.819 29.018H239.961C238.559 29.018 237.591 29.989 237.591 31.393V40.984C237.591 42.387 238.559 43.356 239.961 43.356H263.572V112.897C263.572 114.298 264.545 115.27 265.942 115.27H276.836ZM384.427 112.252C385.83 113.762 384.968 115.27 383.238 115.27H369.549C367.716 115.27 366.743 114.839 365.557 113.435L357.366 104.383C351.87 111.714 344.209 117.211 331.49 117.211C315.749 117.211 303.35 107.725 303.35 91.445C303.35 78.936 310.035 72.252 320.169 66.646C315.211 60.93 312.946 54.894 312.946 49.613C312.946 36.24 322.326 27.077 336.448 27.077C350.897 27.077 359.736 35.598 359.736 48.211C359.736 58.989 351.975 65.025 343.779 69.557L355.855 82.605L362.648 70.741C363.51 69.341 364.481 68.8 366.205 68.8H376.661C378.389 68.8 379.359 69.991 378.283 71.821L366.205 92.518L384.427 112.252V112.252ZM336.664 40.445C331.06 40.445 327.825 44.005 327.825 48.748C327.825 52.415 329.763 55.649 334.185 60.392C341.838 55.972 345.074 53.278 345.074 48.534C345.074 44.112 342.273 40.445 336.664 40.445V40.445ZM331.815 103.625C338.711 103.625 343.349 100.285 347.123 94.571L329.66 75.809C322.973 79.585 318.658 83.355 318.658 90.904C318.658 98.345 324.695 103.625 331.815 103.625V103.625ZM248.07 112.464C248.608 113.868 247.746 115.27 246.237 115.27H235.024C233.408 115.27 232.435 114.517 231.897 113.003L225.536 94.678H190.716L184.35 113.003C183.812 114.517 182.841 115.27 181.225 115.27H170.66C169.258 115.27 168.287 113.868 168.828 112.464L198.044 31.174C198.585 29.663 199.555 29.02 201.169 29.02H215.618C217.234 29.02 218.31 29.663 218.851 31.174L248.07 112.464V112.464ZM220.576 80.554L208.179 44.975L195.671 80.554H220.576ZM401.461 115.27C400.06 115.27 399.092 114.298 399.092 112.897V43.356H375.477C374.074 43.356 373.106 42.387 373.106 40.984V31.393C373.106 29.989 374.074 29.018 375.477 29.018H438.335C439.736 29.018 440.703 29.989 440.703 31.393V40.984C440.703 42.387 439.736 43.356 438.335 43.356H414.723V112.897C414.723 114.298 413.752 115.27 412.352 115.27H401.461V115.27Z" fill="#13171B"/>
    <path fill-rule="evenodd" clip-rule="evenodd" d="M108.829 10.151C98.039 3.68 85.51 0 72.001 0C58.397 0 45.49 3.811 34.661 10.452C31.415 12.451 29.585 14.056 29.585 16.113C29.585 22.189 43.773 28.717 68.943 28.717C93.851 28.717 113.17 21.565 113.17 14.679C113.17 13.037 111.736 11.886 108.829 10.151M119.548 18.15C119.85 18.622 120.001 19.131 120.001 19.81C120.001 27.811 95.529 41.962 56.567 41.962C27.942 41.962 22.585 31.339 22.585 24.583C22.585 22.168 23.51 19.697 25.548 17.189C25.662 17.037 25.566 16.98 25.435 17.094C21.718 20.244 18.302 23.791 15.303 27.623C13.869 29.434 12.981 31.038 12.981 31.999C12.981 45.999 48.075 56.15 80.887 56.15C115.849 56.15 131.454 44.735 131.454 34.698C131.454 31.112 130.059 29.018 126.491 24.961C124.171 22.32 121.981 20.17 119.662 18.055C119.548 17.962 119.471 18.037 119.548 18.15M6.942 41.112C4.832 45.302 2.492 52.376 1.794 56.036C1.49 57.604 1.622 58.357 2.17 59.528C6.587 68.905 28.926 83.906 81.039 83.906C112.83 83.906 137.529 76.093 141.529 61.831C142.265 59.206 142.304 56.433 141.359 52.698C140.301 48.526 138.321 43.66 136.643 40.245C136.587 40.131 136.491 40.15 136.509 40.281C137.132 58.981 85.001 71.037 58.698 71.037C30.207 71.037 6.435 59.679 6.435 45.338C6.435 43.961 6.718 42.584 7.076 41.15C7.112 41.019 6.999 40.998 6.942 41.112M57.529 100.866C20.681 100.866 3.303 83.698 0.152 71.981C0.113 71.809 0 71.848 0 72C0 75.943 0.396 81.036 1.076 84.414C1.398 86.056 2.736 88.641 4.698 90.697C13.622 100 35.868 113.037 74.395 113.037C126.887 113.037 138.888 95.547 141.339 89.792C143.094 85.679 144 78.244 144 72C144 70.489 143.961 69.282 143.905 68.094C143.905 67.904 143.794 67.887 143.755 68.074C141.132 82.151 96.283 100.866 57.529 100.866M76.887 132.546C94.605 132.546 114.076 127.716 125.718 118.15C128.905 115.547 131.943 112.076 134.661 107.415C136.226 104.735 137.755 101.547 139.001 98.415C139.058 98.264 138.962 98.189 138.849 98.358C128.02 114.301 96.662 124.243 64.284 124.243C41.397 124.243 16.773 116.924 7.133 102.943C7.038 102.811 6.942 102.868 6.999 103.018C15.983 122.112 43.228 132.546 76.887 132.546M27.85 128.867C40.056 138.32 55.378 144 72.001 144C90.19 144 106.775 137.244 119.432 126.151C119.584 126.017 119.51 125.924 119.36 126.017C113.679 129.811 97.49 138.094 72.001 138.094C49.848 138.094 35.85 133.15 27.942 128.735C27.793 128.661 27.736 128.774 27.85 128.867" fill="#009FDB"/>
</svg>
